# xmcd
#
# Track frame offsets:
#	150
#	22007
#	38092
#	55555
#	70957
#	86182
#	101612
#	116891
#	134990
#	149273
#	163513
#	179422
#	194554
#	209787
#	225342
#	241603
#	260278
#	274955
#	291300
#	307879
#	328383
#
# Disc length: 4644 seconds
#
# Revision: 3
# Processed by: cddbd v1.5.2PL0 Copyright (c) Steve Scherf et al.
# Submitted via: EasyCDDAExtractor 9.1.1.2
#
DISCID=48122215
DTITLE=Modern Talking - China In Her Eyes
DYEAR=2000
DGENRE=Pop
TTITLE0=China In Her Eyes(feat. Eric Singleton)
TTITLE1=Sexy,Sexy Lover
TTITLE2=You`re My Heart, You`re My Soul
TTITLE3=You Are Not Alone (feat. Eric Singleton)
TTITLE4=For Always And Ever
TTITLE5=S.O.S for Love
TTITLE6=Brother Loui (feat. Eric Singleton)
TTITLE7=Jet Airliner (new version)
TTITLE8=Taxi Girl
TTITLE9=Geronimo`s Caddilac(new version)
TTITLE10=Angie`s Heart(new Version)
TTITLE11=Don`t Let Me Go
TTITLE12=It Hurts so Good
TTITLE13=I`ll Never Give You Up
TTITLE14=You Can Win If You Want (new version)
TTITLE15=We Take The Chance
TTITLE16=Rouge Et Noir
TTITLE17=Anything Is Possible (new version)
TTITLE18=I Can Give You More
TTITLE19=Space Mix  (feat. Eric Singleton)
TTITLE20=China In Her Eyes (Remix)
EXTD=YEAR: 2000
EXTT0=fdffsfsfsdf
EXTT1=
EXTT2=
EXTT3=
EXTT4=
EXTT5=
EXTT6=
EXTT7=
EXTT8=
EXTT9=
EXTT10=
EXTT11=
EXTT12=
EXTT13=
EXTT14=
EXTT15=
EXTT16=
EXTT17=
EXTT18=
EXTT19=
EXTT20=
PLAYORDER=
